<?xml version="1.0" encoding="UTF-8" standalone="no"?>
<!DOCTYPE svg PUBLIC "-//W3C//DTD SVG 1.1//EN" "http://www.w3.org/Graphics/SVG/1.1/DTD/svg11.dtd">
<svg version="1.1" xmlns="http://www.w3.org/2000/svg" xmlns:xlink="http://www.w3.org/1999/xlink" preserveAspectRatio="xMidYMid meet" viewBox="0 0 640 640" width="640" height="640"><defs><path d="M396.29 136.67C396.29 154.82 396.29 178.56 396.29 196.72C396.29 213.7 382.53 227.46 365.55 227.46C336.72 227.46 280.99 227.46 252.16 227.46C235.18 227.46 221.42 213.7 221.42 196.72C221.42 178.56 221.42 154.82 221.42 136.67C221.42 119.69 235.18 105.92 252.16 105.92C280.99 105.92 336.72 105.92 365.55 105.92C382.53 105.92 396.29 119.69 396.29 136.67Z" id="ab3QKNAC5"></path><path d="M396.29 136.67C396.29 154.82 396.29 178.56 396.29 196.72C396.29 213.7 382.53 227.46 365.55 227.46C336.72 227.46 280.99 227.46 252.16 227.46C235.18 227.46 221.42 213.7 221.42 196.72C221.42 178.56 221.42 154.82 221.42 136.67C221.42 119.69 235.18 105.92 252.16 105.92C280.99 105.92 336.72 105.92 365.55 105.92C382.53 105.92 396.29 119.69 396.29 136.67Z" id="a3uUPE3aOP"></path><path d="M275.42 131.77C275.42 138.36 275.42 151.84 275.42 158.44C275.42 161.91 272.6 164.73 269.12 164.73C262.57 164.73 249.22 164.73 242.67 164.73C239.19 164.73 236.37 161.91 236.37 158.44C236.37 151.84 236.37 138.36 236.37 131.77C236.37 128.29 239.19 125.48 242.67 125.48C249.22 125.48 262.57 125.48 269.12 125.48C272.6 125.48 275.42 128.29 275.42 131.77Z" id="a7qHAbhrTT"></path><path d="M275.42 131.77C275.42 138.36 275.42 151.84 275.42 158.44C275.42 161.91 272.6 164.73 269.12 164.73C262.57 164.73 249.22 164.73 242.67 164.73C239.19 164.73 236.37 161.91 236.37 158.44C236.37 151.84 236.37 138.36 236.37 131.77C236.37 128.29 239.19 125.48 242.67 125.48C249.22 125.48 262.57 125.48 269.12 125.48C272.6 125.48 275.42 128.29 275.42 131.77Z" id="d1eSorUebC"></path><path d="M347.9 131.77C347.9 138.36 347.9 151.84 347.9 158.44C347.9 161.91 345.08 164.73 341.61 164.73C335.06 164.73 321.7 164.73 315.15 164.73C311.68 164.73 308.86 161.91 308.86 158.44C308.86 151.84 308.86 138.36 308.86 131.77C308.86 128.29 311.68 125.48 315.15 125.48C321.7 125.48 335.06 125.48 341.61 125.48C345.08 125.48 347.9 128.29 347.9 131.77Z" id="b1tf1aKxnz"></path><path d="M347.9 131.77C347.9 138.36 347.9 151.84 347.9 158.44C347.9 161.91 345.08 164.73 341.61 164.73C335.06 164.73 321.7 164.73 315.15 164.73C311.68 164.73 308.86 161.91 308.86 158.44C308.86 151.84 308.86 138.36 308.86 131.77C308.86 128.29 311.68 125.48 315.15 125.48C321.7 125.48 335.06 125.48 341.61 125.48C345.08 125.48 347.9 128.29 347.9 131.77Z" id="c1g5v1U7FV"></path><path d="M444.64 327.24C444.64 367.3 444.64 357.81 444.64 388.45C444.64 465.25 382.38 527.51 305.58 527.51C277.78 527.51 333.39 527.51 305.58 527.51C228.82 527.51 166.6 465.29 166.6 388.53C166.6 357.87 166.6 367.3 166.6 327.24C166.6 276.43 207.79 235.24 258.6 235.24C295.81 235.24 315.43 235.24 352.64 235.24C403.45 235.24 444.64 276.43 444.64 327.24Z" id="g6oX9u9Gaz"></path><path d="M444.64 327.24C444.64 367.3 444.64 357.81 444.64 388.45C444.64 465.25 382.38 527.51 305.58 527.51C277.78 527.51 333.39 527.51 305.58 527.51C228.82 527.51 166.6 465.29 166.6 388.53C166.6 357.87 166.6 367.3 166.6 327.24C166.6 276.43 207.79 235.24 258.6 235.24C295.81 235.24 315.43 235.24 352.64 235.24C403.45 235.24 444.64 276.43 444.64 327.24Z" id="a2g0WgMvFX"></path><path d="M432.25 442.27C420.25 442.27 410.38 436.53 402.64 425.04C393.72 411.8 388.95 396.19 388.95 380.22C388.95 373.36 388.95 356.21 388.95 328.76C388.95 326.61 388.95 315.84 388.95 296.46L388.95 245.81" id="age2c9pth"></path><path d="M178.13 442.27C190.13 442.27 199.99 436.53 207.73 425.04C216.65 411.8 221.42 396.19 221.42 380.22C221.42 373.36 221.42 356.21 221.42 328.76C221.42 326.61 221.42 315.84 221.42 296.46L221.42 245.81" id="abtKgh6gp"></path><path d="M334.58 199.81C334.58 201.23 334.58 198.39 334.58 199.81C334.58 203.72 331.41 206.89 327.5 206.89C315.13 206.89 285.11 206.89 272.75 206.89C268.83 206.89 265.66 203.72 265.66 199.81C265.66 198.39 265.66 201.23 265.66 199.81C265.66 195.9 268.83 192.73 272.75 192.73C285.11 192.73 315.13 192.73 327.5 192.73C331.41 192.73 334.58 195.9 334.58 199.81Z" id="f1HpzWOFaW"></path><path d="M334.58 199.81C334.58 201.23 334.58 198.39 334.58 199.81C334.58 203.72 331.41 206.89 327.5 206.89C315.13 206.89 285.11 206.89 272.75 206.89C268.83 206.89 265.66 203.72 265.66 199.81C265.66 198.39 265.66 201.23 265.66 199.81C265.66 195.9 268.83 192.73 272.75 192.73C285.11 192.73 315.13 192.73 327.5 192.73C331.41 192.73 334.58 195.9 334.58 199.81Z" id="b560vQm6CN"></path><path d="M264.72 49.71C264.72 61.13 264.72 87.38 264.72 98.8C264.72 103.23 261.13 106.82 256.7 106.82C255.09 106.82 258.3 106.82 256.7 106.82C252.26 106.82 248.67 103.23 248.67 98.8C248.67 87.38 248.67 61.13 248.67 49.71C248.67 45.28 252.26 41.68 256.7 41.68C258.3 41.68 255.09 41.68 256.7 41.68C261.13 41.68 264.72 45.28 264.72 49.71Z" id="a1LNxMq9IJ"></path><path d="M256.63 45.49C249.59 45.49 243.88 39.78 243.88 32.74C243.88 25.71 249.59 20 256.63 20C263.66 20 269.37 25.71 269.37 32.74C269.37 39.78 263.66 45.49 256.63 45.49Z" id="aksMKwZj3"></path><path d="M305.62 527.51C292.86 527.51 222.28 513.08 222.28 500.32C222.28 487.56 287.36 478.07 300.12 478.07C312.88 478.07 380.27 485.25 380.27 498.01C380.27 510.77 318.38 527.51 305.62 527.51Z" id="c27TpNyK6p"></path><path d="M363.36 289.21C358.15 289.21 353.92 284.98 353.92 279.77C353.92 274.56 358.15 270.33 363.36 270.33C368.57 270.33 372.8 274.56 372.8 279.77C372.8 284.98 368.57 289.21 363.36 289.21Z" id="hKQRRhxe2"></path><path d="M305.62 279.98C305.62 290.84 305.62 311.05 305.62 321.9C305.62 328.73 300.09 334.26 293.26 334.26C282.41 334.26 262.2 334.26 251.34 334.26C244.52 334.26 238.98 328.73 238.98 321.9C238.98 311.05 238.98 290.84 238.98 279.98C238.98 273.16 244.52 267.62 251.34 267.62C262.2 267.62 282.41 267.62 293.26 267.62C300.09 267.62 305.62 273.16 305.62 279.98Z" id="a1pc0LVGC"></path><path d="M335.99 289.08C330.78 289.08 326.55 284.85 326.55 279.64C326.55 274.43 330.78 270.2 335.99 270.2C341.2 270.2 345.43 274.43 345.43 279.64C345.43 284.85 341.2 289.08 335.99 289.08Z" id="d1fpdsRXTT"></path><path d="M296.56 273.75C290.51 292.13 286.73 303.62 285.22 308.21C284.19 311.32 280.15 312.11 278.04 309.6C275.38 306.45 272.24 302.73 269.59 299.58C267.37 296.95 263.15 297.58 261.79 300.74C260.38 304.01 256.87 312.2 251.25 325.29" id="doo4IfYn4"></path><path d="M302 464C252.25 464 208.18 503.93 208.18 491.17C208.18 478.41 255.87 443.03 305.62 443.03C355.37 443.03 407.17 478.41 407.17 491.17C407.17 503.93 351.74 464 302 464Z" id="bCazjmAUM"></path><path d="M305.08 638.55C276.67 604.22 262.47 577.42 262.47 558.17C262.47 529.29 276.2 533.9 305.08 533.9C333.96 533.9 348.78 529.29 348.78 558.17C348.78 577.42 334.21 604.22 305.08 638.55Z" id="jUty6zxAF"></path><path d="M305.62 601.22C300.38 600.15 273.56 578.07 273.56 556.61C273.56 535.16 283.76 538.58 305.22 538.58C326.68 538.58 337.68 535.16 337.68 556.61C337.68 578.07 310.86 602.3 305.62 601.22Z" id="h2XYzBu2m0"></path><path d="M305.4 580.73C293.94 566.87 288.2 556.06 288.2 548.29C288.2 536.63 293.75 538.49 305.4 538.49C317.06 538.49 323.04 536.63 323.04 548.29C323.04 556.06 317.16 566.87 305.4 580.73Z" id="b2Jo5hCgqX"></path></defs><g><g><g><use xlink:href="#ab3QKNAC5" opacity="1" fill="#d7d7d7" fill-opacity="1"></use><g><use xlink:href="#ab3QKNAC5" opacity="1" fill-opacity="0" stroke="#000000" stroke-width="1" stroke-opacity="0"></use></g></g><g><g><filter id="shadow11406249" x="185.42" y="69.92" width="262.87" height="200.54" filterUnits="userSpaceOnUse" primitiveUnits="userSpaceOnUse"><feFlood></feFlood><feComposite in2="SourceAlpha" operator="in"></feComposite><feGaussianBlur stdDeviation="2.65"></feGaussianBlur><feOffset dx="16" dy="-7" result="afterOffset"></feOffset><feFlood flood-color="#000000" flood-opacity="0.42"></feFlood><feComposite in2="afterOffset" operator="in"></feComposite><feMorphology operator="dilate" radius="1"></feMorphology><feComposite in2="SourceAlpha" operator="out"></feComposite></filter><path d="M396.29 136.67C396.29 154.82 396.29 178.56 396.29 196.72C396.29 213.7 382.53 227.46 365.55 227.46C336.72 227.46 280.99 227.46 252.16 227.46C235.18 227.46 221.42 213.7 221.42 196.72C221.42 178.56 221.42 154.82 221.42 136.67C221.42 119.69 235.18 105.92 252.16 105.92C280.99 105.92 336.72 105.92 365.55 105.92C382.53 105.92 396.29 119.69 396.29 136.67Z" id="aZ9FSL0oU" fill="white" fill-opacity="1" filter="url(#shadow11406249)"></path></g><use xlink:href="#a3uUPE3aOP" opacity="1" fill="#000000" fill-opacity="0"></use><g><use xlink:href="#a3uUPE3aOP" opacity="1" fill-opacity="0" stroke="#23232e" stroke-width="15" stroke-opacity="1"></use></g></g><g><use xlink:href="#a7qHAbhrTT" opacity="1" fill="#42ae8f" fill-opacity="1"></use><g><use xlink:href="#a7qHAbhrTT" opacity="1" fill-opacity="0" stroke="#000000" stroke-width="1" stroke-opacity="0"></use></g></g><g><use xlink:href="#d1eSorUebC" opacity="1" fill="#000000" fill-opacity="0"></use><g><use xlink:href="#d1eSorUebC" opacity="1" fill-opacity="0" stroke="#23232e" stroke-width="15" stroke-opacity="1"></use></g></g><g><use xlink:href="#b1tf1aKxnz" opacity="1" fill="#42ae8f" fill-opacity="1"></use><g><use xlink:href="#b1tf1aKxnz" opacity="1" fill-opacity="0" stroke="#000000" stroke-width="1" stroke-opacity="0"></use></g></g><g><use xlink:href="#c1g5v1U7FV" opacity="1" fill="#000000" fill-opacity="0"></use><g><use xlink:href="#c1g5v1U7FV" opacity="1" fill-opacity="0" stroke="#23232e" stroke-width="15" stroke-opacity="1"></use></g></g><g><use xlink:href="#g6oX9u9Gaz" opacity="1" fill="#d7d7d7" fill-opacity="1"></use><g><use xlink:href="#g6oX9u9Gaz" opacity="1" fill-opacity="0" stroke="#000000" stroke-width="1" stroke-opacity="0"></use></g></g><g><g><filter id="shadow7489275" x="130.6" y="199.24" width="366.04" height="371.27" filterUnits="userSpaceOnUse" primitiveUnits="userSpaceOnUse"><feFlood></feFlood><feComposite in2="SourceAlpha" operator="in"></feComposite><feGaussianBlur stdDeviation="2.65"></feGaussianBlur><feOffset dx="16" dy="-7" result="afterOffset"></feOffset><feFlood flood-color="#000000" flood-opacity="0.42"></feFlood><feComposite in2="afterOffset" operator="in"></feComposite><feMorphology operator="dilate" radius="1"></feMorphology><feComposite in2="SourceAlpha" operator="out"></feComposite></filter><path d="M444.64 327.24C444.64 367.3 444.64 357.81 444.64 388.45C444.64 465.25 382.38 527.51 305.58 527.51C277.78 527.51 333.39 527.51 305.58 527.51C228.82 527.51 166.6 465.29 166.6 388.53C166.6 357.87 166.6 367.3 166.6 327.24C166.6 276.43 207.79 235.24 258.6 235.24C295.81 235.24 315.43 235.24 352.64 235.24C403.45 235.24 444.64 276.43 444.64 327.24Z" id="ba8AB3HmdM" fill="white" fill-opacity="1" filter="url(#shadow7489275)"></path></g><use xlink:href="#a2g0WgMvFX" opacity="1" fill="#000000" fill-opacity="0"></use><g><use xlink:href="#a2g0WgMvFX" opacity="1" fill-opacity="0" stroke="#23232e" stroke-width="15" stroke-opacity="1"></use></g></g><g><use xlink:href="#age2c9pth" opacity="1" fill="#000000" fill-opacity="0"></use><g><use xlink:href="#age2c9pth" opacity="1" fill-opacity="0" stroke="#252533" stroke-width="15" stroke-opacity="1"></use></g></g><g><use xlink:href="#abtKgh6gp" opacity="1" fill="#000000" fill-opacity="0"></use><g><use xlink:href="#abtKgh6gp" opacity="1" fill-opacity="0" stroke="#252533" stroke-width="15" stroke-opacity="1"></use></g></g><g><use xlink:href="#f1HpzWOFaW" opacity="1" fill="#23232e" fill-opacity="1"></use><g><use xlink:href="#f1HpzWOFaW" opacity="1" fill-opacity="0" stroke="#000000" stroke-width="1" stroke-opacity="0"></use></g></g><g><use xlink:href="#b560vQm6CN" opacity="1" fill="#000000" fill-opacity="0"></use><g><use xlink:href="#b560vQm6CN" opacity="1" fill-opacity="0" stroke="#23232e" stroke-width="1" stroke-opacity="1"></use></g></g><g><g><filter id="shadow10801695" x="222.67" y="15.68" width="74.05" height="118.14" filterUnits="userSpaceOnUse" primitiveUnits="userSpaceOnUse"><feFlood></feFlood><feComposite in2="SourceAlpha" operator="in"></feComposite><feGaussianBlur stdDeviation="2.65"></feGaussianBlur><feOffset dx="6" dy="1" result="afterOffset"></feOffset><feFlood flood-color="#000000" flood-opacity="0.42"></feFlood><feComposite in2="afterOffset" operator="in"></feComposite><feMorphology operator="dilate" radius="1"></feMorphology><feComposite in2="SourceAlpha" operator="out"></feComposite></filter><path d="M264.72 49.71C264.72 61.13 264.72 87.38 264.72 98.8C264.72 103.23 261.13 106.82 256.7 106.82C255.09 106.82 258.3 106.82 256.7 106.82C252.26 106.82 248.67 103.23 248.67 98.8C248.67 87.38 248.67 61.13 248.67 49.71C248.67 45.28 252.26 41.68 256.7 41.68C258.3 41.68 255.09 41.68 256.7 41.68C261.13 41.68 264.72 45.28 264.72 49.71Z" id="eNDrSuWqt" fill="white" fill-opacity="1" filter="url(#shadow10801695)"></path></g><use xlink:href="#a1LNxMq9IJ" opacity="1" fill="#23232e" fill-opacity="1"></use><g><use xlink:href="#a1LNxMq9IJ" opacity="1" fill-opacity="0" stroke="#000000" stroke-width="1" stroke-opacity="0"></use></g></g><g><g><filter id="shadow1817858" x="217.88" y="-6" width="83.49" height="81.49" filterUnits="userSpaceOnUse" primitiveUnits="userSpaceOnUse"><feFlood></feFlood><feComposite in2="SourceAlpha" operator="in"></feComposite><feGaussianBlur stdDeviation="2.65"></feGaussianBlur><feOffset dx="6" dy="-4" result="afterOffset"></feOffset><feFlood flood-color="#000000" flood-opacity="0.42"></feFlood><feComposite in2="afterOffset" operator="in"></feComposite><feMorphology operator="dilate" radius="1"></feMorphology><feComposite in2="SourceAlpha" operator="out"></feComposite></filter><path d="M256.63 45.49C249.59 45.49 243.88 39.78 243.88 32.74C243.88 25.71 249.59 20 256.63 20C263.66 20 269.37 25.71 269.37 32.74C269.37 39.78 263.66 45.49 256.63 45.49Z" id="c1r1YC8SiD" fill="white" fill-opacity="1" filter="url(#shadow1817858)"></path></g><use xlink:href="#aksMKwZj3" opacity="1" fill="#23232e" fill-opacity="1"></use><g><use xlink:href="#aksMKwZj3" opacity="1" fill-opacity="0" stroke="#000000" stroke-width="1" stroke-opacity="0"></use></g></g><g><use xlink:href="#c27TpNyK6p" opacity="1" fill="#23232e" fill-opacity="1"></use><g><use xlink:href="#c27TpNyK6p" opacity="1" fill-opacity="0" stroke="#000000" stroke-width="1" stroke-opacity="0"></use></g></g><g><use xlink:href="#hKQRRhxe2" opacity="1" fill="#42ae8f" fill-opacity="1"></use><g><use xlink:href="#hKQRRhxe2" opacity="1" fill-opacity="0" stroke="#000000" stroke-width="1" stroke-opacity="0"></use></g></g><g><use xlink:href="#a1pc0LVGC" opacity="1" fill="#42ae8f" fill-opacity="1"></use><g><use xlink:href="#a1pc0LVGC" opacity="1" fill-opacity="0" stroke="#000000" stroke-width="1" stroke-opacity="0"></use></g></g><g><use xlink:href="#d1fpdsRXTT" opacity="1" fill="#cc5c4f" fill-opacity="1"></use><g><use xlink:href="#d1fpdsRXTT" opacity="1" fill-opacity="0" stroke="#000000" stroke-width="1" stroke-opacity="0"></use></g></g><g><use xlink:href="#doo4IfYn4" opacity="1" fill="#000000" fill-opacity="0"></use><g><use xlink:href="#doo4IfYn4" opacity="1" fill-opacity="0" stroke="#d7d7d7" stroke-width="10" stroke-opacity="1"></use></g></g><g><use xlink:href="#bCazjmAUM" opacity="1" fill="#23232e" fill-opacity="1"></use><g><use xlink:href="#bCazjmAUM" opacity="1" fill-opacity="0" stroke="#000000" stroke-width="1" stroke-opacity="0"></use></g></g><g><g><filter id="shadow26252" x="232.47" y="503.63" width="156.31" height="171.92" filterUnits="userSpaceOnUse" primitiveUnits="userSpaceOnUse"><feFlood></feFlood><feComposite in2="SourceAlpha" operator="in"></feComposite><feGaussianBlur stdDeviation="2.65"></feGaussianBlur><feOffset dx="10" dy="-7" result="afterOffset"></feOffset><feFlood flood-color="#000000" flood-opacity="0.23"></feFlood><feComposite in2="afterOffset" operator="in"></feComposite><feMorphology operator="dilate" radius="1"></feMorphology><feComposite in2="SourceAlpha" operator="out"></feComposite></filter><path d="M305.08 638.55C276.67 604.22 262.47 577.42 262.47 558.17C262.47 529.29 276.2 533.9 305.08 533.9C333.96 533.9 348.78 529.29 348.78 558.17C348.78 577.42 334.21 604.22 305.08 638.55Z" id="a9NineIDe" fill="white" fill-opacity="1" filter="url(#shadow26252)"></path></g><use xlink:href="#jUty6zxAF" opacity="1" fill="#3bfbec" fill-opacity="1"></use><g><use xlink:href="#jUty6zxAF" opacity="1" fill-opacity="0" stroke="#000000" stroke-width="1" stroke-opacity="0"></use></g></g><g><use xlink:href="#h2XYzBu2m0" opacity="1" fill="#fbf73b" fill-opacity="1"></use><g><use xlink:href="#h2XYzBu2m0" opacity="1" fill-opacity="0" stroke="#000000" stroke-width="1" stroke-opacity="0"></use></g></g><g><use xlink:href="#b2Jo5hCgqX" opacity="1" fill="#f66060" fill-opacity="1"></use><g><use xlink:href="#b2Jo5hCgqX" opacity="1" fill-opacity="0" stroke="#000000" stroke-width="1" stroke-opacity="0"></use></g></g></g></g></svg>